# xmcd
#
# Track frame offsets: 
#        150
#        16537
#        35530
#        52178
#        72218
#        87257
#        111196
#        126750
#        140275
#        154883
#        174251
#        191333
#        208823
#
# Disc length: 3134 seconds
#
# Revision: 0
# Processed by: cddbd v1.5.2PL0 Copyright (c) Steve Scherf et al.
# Submitted via: ExactAudioCopyFreeDBPlugin 1.0
#
DISCID=ac0c3c0d
DTITLE=Stevie Agnew - Wreckin' Yard
DYEAR=2013
DGENRE=Americana
TTITLE0=Wreckin' Yard (Abridged Version)
TTITLE1=Pretend You Love Me Tonight
TTITLE2=All That I Can See
TTITLE3=Winter Rain
TTITLE4=The Pugilist (The Ballad of Maxie Mann)
TTITLE5=Sub Prime
TTITLE6=Heavy Duty
TTITLE7=Sixteen Years
TTITLE8=Paid My Dues (Loving You)
TTITLE9=The Whore In Me
TTITLE10=The Mighty Bones
TTITLE11=Skimmin' Stone
TTITLE12=Wreckin' Yard (The Full Story)
EXTD=
EXTT0=
EXTT1=
EXTT2=
EXTT3=
EXTT4=
EXTT5=
EXTT6=
EXTT7=
EXTT8=
EXTT9=
EXTT10=
EXTT11=
EXTT12=
PLAYORDER=
